<svg xmlns="http://www.w3.org/2000/svg" viewBox="0 0 100 100">
  <defs>
    <linearGradient id="goldGrad" x1="0%" y1="0%" x2="100%" y2="100%">
      <stop offset="0%" style="stop-color:#d4af37;stop-opacity:1" />
      <stop offset="100%" style="stop-color:#f5f5f5;stop-opacity:1" />
    </linearGradient>
  </defs>
  <!-- Main Globe -->
  <circle cx="50" cy="50" r="40" fill="#009edb" fill-opacity="0.1" stroke="#009edb" stroke-width="1"/>
  <path d="M10 50 Q 50 10 90 50 Q 50 90 10 50 Z" fill="none" stroke="#009edb" stroke-width="0.5" opacity="0.3"/>
  <path d="M50 10 Q 90 50 50 90 Q 10 50 50 10 Z" fill="none" stroke="#009edb" stroke-width="0.5" opacity="0.3"/>
  <line x1="50" y1="10" x2="50" y2="90" stroke="#009edb" stroke-width="0.5" opacity="0.3"/>
  <line x1="10" y1="50" x2="90" y2="50" stroke="#009edb" stroke-width="0.5" opacity="0.3"/>
  
  <!-- Olive Branches -->
  <g fill="url(#goldGrad)">
    <path d="M30 75 Q 20 65 15 45 Q 20 50 30 65 Z" />
    <path d="M70 75 Q 80 65 85 45 Q 80 50 70 65 Z" />
    <circle cx="22" cy="62" r="2.5"/>
    <circle cx="78" cy="62" r="2.5"/>
    <circle cx="18" cy="48" r="2.5"/>
    <circle cx="82" cy="48" r="2.5"/>
  </g>

  <!-- Central Emblem -->
  <path d="M50 30 L55 45 L70 45 L58 55 L63 70 L50 60 L37 70 L42 55 L30 45 L45 45 Z" fill="#d4af37" />
  
  <text x="50" y="85" font-family="Arial" font-size="6" text-anchor="middle" fill="#d4af37" font-weight="bold">2024</text>
</svg>
